<?xml version="1.0" encoding="UTF-8"?>
<svg id="Layer_2" data-name="Layer 2" xmlns="http://www.w3.org/2000/svg" viewBox="0 0 322.36 50.52">
  <defs>
    <style>
      .cls-1 {
        fill: #fff;
      }
    </style>
  </defs>
  <g id="Layer_1-2" data-name="Layer 1">
    <g>
      <g>
        <path class="cls-1" d="M296.83,15.93h5.01c.14,0,.28-.11.33-.24l.93-2.85c.04-.13.19-.24.33-.24h3.84c.14,0,.35.04.48.1l1.22.51c.13.05.31.02.41-.07l3.26-3c.1-.09.08-.21-.05-.26l-3.64-1.53c-.13-.05-.25-.21-.27-.34l-.51-3.25c-.02-.14.06-.2.19-.15l3.64,1.53c.13.05.21-.01.19-.15l-.59-3.75c-.02-.14.04-.33.13-.43l.8-.84c.09-.1.08-.23-.04-.31l-1.04-.6c-.12-.07-.32-.09-.45-.04l-4.95,1.79c-.13.05-.34.04-.47-.01l-1.46-.61c-.13-.05-.26,0-.31.14l-.19.59c-.04.13,0,.31.12.39l.73.59c.11.09.12.24.02.33l-.49.49c-.1.1-.28.13-.4.08l-1.5-.63c-.13-.05-.2-.2-.15-.33l.66-2.02c.04-.13-.02-.28-.15-.33l-.94-.39c-.13-.05-.26,0-.31.14l-.91,2.77c-.04.13-.05.34-.01.48l.58,2.21c.03.13.03.35-.01.48l-2.02,6.19c-.04.13-.19.24-.33.24h-1.09c-.14,0-.27.11-.29.24l-.51,2.84c-.02.14.07.24.2.24Z"/>
        <path class="cls-1" d="M307.42,13.6h-3.28c-.14,0-.28.11-.33.24l-.61,1.86c-.04.13.03.24.17.24h4.4c.14,0,.23-.11.21-.25l-.29-1.84c-.02-.14-.15-.25-.29-.25Z"/>
        <path class="cls-1" d="M313.14,3.49c.02.14.14.19.26.13l1.09-.6c.12-.07.15-.21.06-.31l-.89-1.09c-.09-.1-.24-.11-.33-.01l-.24.25c-.1.1-.16.29-.14.43l.19,1.22Z"/>
        <path class="cls-1" d="M313.38,5.01l.25,1.57c.02.14.14.29.27.34l2.69,1.13c.13.05.27.2.32.33l.28.71c.05.13.2.23.34.22l.63-.04c.14,0,.28-.12.33-.25l.88-2.69c.04-.13-.01-.31-.12-.39l-1.44-1.08c-.11-.08-.21-.26-.23-.4l-.17-1.68c-.01-.14-.12-.19-.24-.13l-3.6,1.99c-.12.07-.2.23-.18.37Z"/>
        <path class="cls-1" d="M322.21,5.32l-3.19-1.86c-.12-.07-.2-.01-.19.12l.06.56c.01.14.11.32.22.4l1.58,1.21c.11.08.16.26.12.39l-1.32,4.05c-.04.13-.19.24-.32.25l-4.3.26c-.14,0-.31.11-.38.23l-2.12,3.44c-.07.12-.03.26.1.31l.96.4c.13.05.19.2.15.33l-.91,2.75c-.04.13-.18.19-.31.14l-2.53-1.06c-.13-.05-.34-.1-.48-.09h-.86c-.14,0-.23.11-.21.25l.83,5.26c.02.14.14.3.25.37l3.63,2.04c.12.07.1.13-.03.14l-3.17.18c-.14,0-.3.12-.35.24l-3.07,6.96c-.06.13-.13.34-.16.47l-3.32,14.13c-.03.13,0,.33.08.45l.67,1.01c.08.11.03.21-.11.21h-.71c-.14,0-.31-.09-.39-.21l-.53-.79c-.08-.11-.12-.32-.09-.45l2.88-14.13c.03-.13,0-.34-.06-.47l-1.39-2.71c-.06-.12-.04-.31.05-.41l4.57-5.28c.09-.1.15-.3.12-.43l-1.03-6.56c-.02-.14-.15-.25-.29-.25h-9.82c-.14,0-.25.11-.25.25v.33c0,.14-.08.32-.18.42l-16,14.83c-.1.09-.29.17-.43.17h-2.09c-.14,0-.33.08-.43.17l-1.07,1c-.1.09-.13.27-.06.38l1.97,3.42c.07.12.09.32.04.45l-3.71,10.65c-.05.13-.03.33.04.45l.37.64c.07.12.24.22.37.22h7.3c.14,0,.27-.11.3-.24l.16-.83c.03-.13-.02-.33-.1-.45l-1.54-2.1c-.08-.11-.04-.23.09-.27l9.21-2.78c.13-.04.16-.15.06-.24l-2.75-2.69c-.1-.1-.27-.12-.39-.05l-7.96,4.77c-.12.07-.27.23-.33.35l-1.43,2.64c-.07.12-.23.22-.37.22h-.6c-.14,0-.2-.1-.15-.23l3.12-7.11c.06-.12.21-.24.35-.27l6.72-1.09c.14-.02.26-.15.29-.29l1.14-7.04c.02-.14-.04-.32-.15-.41l-1.4-1.24c-.1-.09-.16-.27-.14-.41l.16-.83c.03-.13.13-.17.23-.08l2.46,2.18c.1.09.21.28.23.41l1.74,10.37c.02.14.09.15.16.02l2.5-4.86c.06-.12.22-.2.36-.18l3.01.54c.13.02.29-.06.34-.18l.97-2.32c.05-.13.08-.34.06-.47l-2.04-12.15c-.02-.14.03-.16.11-.05l4.51,5.83c.08.11.11.3.06.43l-1.69,4.03c-.05.13-.05.33,0,.46l1.56,3.38c.06.12.08.34.06.47l-2.23,11.45c-.03.13,0,.34.08.46l.38.64c.07.12.24.22.37.22h7.21c.14,0,.28-.11.33-.24l.27-.84c.04-.13,0-.32-.08-.43l-2.74-3.4c-.09-.11-.11-.3-.05-.42l3.33-6.95c.06-.12.12-.34.14-.47l.63-5.13c.02-.14.1-.33.19-.44l4.95-6.18c.08-.11.15-.31.15-.44l-.14-5.34c0-.14-.07-.34-.16-.45l-.43-.59c-.08-.11-.11-.31-.07-.44l.94-2.87c.04-.13.02-.33-.05-.45l-.56-.99c-.07-.12-.02-.26.1-.32l6.08-2.69c.13-.06.26-.21.31-.34l1.77-5.42c.04-.13-.02-.29-.14-.36Z"/>
      </g>
      <g>
        <path class="cls-1" d="M.15,31.59h6.4l3.77,10.66c.25.79.42,1.43.49,2.04h.05c.1-.62.27-1.26.52-2.07l3.69-10.64h6.53v17.48h-4.11v-11.6c0-.76.05-1.63.15-2.39h-.07c-.07.49-.37,1.48-.64,2.14l-4.19,11.84h-3.96l-4.21-11.84c-.27-.69-.49-1.58-.59-2.12h-.1c.1.69.15,1.53.15,2.36v11.6H.15v-17.48Z"/>
        <path class="cls-1" d="M53.87,45.85v3.23h-14.5v-17.48h14.33v3.23h-9.87v3.79h9.46v3.1h-9.46v4.14h10.05Z"/>
        <path class="cls-1" d="M71.03,31.59h4.88l7.12,9.97c.44.66.91,1.48,1.18,2.14h.07c0-.74-.02-1.5-.02-2.34v-9.78h4.09v17.48h-4.63l-7.36-10.07c-.49-.71-.94-1.48-1.18-2.09h-.07c0,.76.02,1.53.02,2.36v9.8h-4.09v-17.48Z"/>
        <path class="cls-1" d="M104.41,31.59h16.5v3.52h-6.01v13.96h-4.48v-13.96h-6.01v-3.52Z"/>
        <path class="cls-1" d="M139.87,31.59h5.34l7.36,17.48h-4.65l-1.48-3.84h-7.81l-1.48,3.84h-4.65l7.36-17.48ZM145.28,42.21l-1.87-4.88c-.25-.69-.64-1.77-.84-2.68h-.05c-.22.91-.59,1.99-.86,2.68l-1.87,4.88h5.49Z"/>
        <path class="cls-1" d="M168.67,31.59h4.46v13.91h9.11v3.57h-13.57v-17.48Z"/>
        <path class="cls-1" d="M198.66,49.08v-17.48h4.46v17.48h-4.46Z"/>
        <path class="cls-1" d="M219.19,31.59h16.5v3.52h-6.01v13.96h-4.48v-13.96h-6.01v-3.52Z"/>
        <path class="cls-1" d="M257.86,42.92l-7.04-11.33h4.9l3.91,6.75c.25.47.39.81.47,1.13h.05c.07-.32.22-.66.49-1.13l3.99-6.75h4.78l-7.07,11.33v6.16h-4.48v-6.16Z"/>
      </g>
      <path class="cls-1" d="M67.21,0h-19.24c-.48,0-1.11.31-1.4.69l-12.01,15.85c-.29.38-.77.38-1.05,0L21.51.7c-.29-.38-.92-.69-1.4-.69H.88C.39,0,0,.4,0,.88v25.91c0,.48.39.87.88.87h13.75c.48,0,.87-.39.87-.87v-13.97c0-.48.24-.56.53-.18l10.86,14.33c.29.38.93.69,1.41.69h11.5c.48,0,1.11-.31,1.41-.69l10.86-14.33c.29-.38.53-.3.53.18v13.97c0,.48.39.87.88.87h13.75c.48,0,.87-.39.87-.87V.88c0-.48-.39-.88-.87-.88"/>
      <path class="cls-1" d="M200.86,0h-50.96c-.48,0-1.11.31-1.4.69l-2.08,2.74c-.29.38-.53,1.09-.53,1.57v17.65c0,.48.24,1.19.53,1.57l2.08,2.73c.29.38.92.7,1.4.7h50.96c.48,0,.88-.39.88-.88v-6.93c0-.48-.4-.88-.88-.88h-38.68c-.48,0-.87-.4-.87-.88v-8.53c0-.48.4-.87.87-.87h38.68c.48,0,.88-.4.88-.88V.88c0-.48-.4-.88-.88-.88"/>
      <path class="cls-1" d="M248.92,10.79c-.37-.31-.33-.74.09-.97L266.86.4c.43-.22.39-.4-.1-.4h-20.83c-.48,0-1.22.18-1.65.4l-18.86,9.96c-.42.23-.77.01-.77-.47V.87c0-.48-.39-.87-.87-.87h-13.75c-.48,0-.87.39-.87.87v25.91c0,.49.39.88.87.88h13.75c.48,0,.87-.39.87-.88v-3.22c0-.48.35-1.06.77-1.28l10.79-5.69c.42-.22,1.07-.16,1.44.15l12.68,10.37c.37.31,1.07.56,1.55.56h16.77c.48,0,.57-.25.2-.56l-19.93-16.31Z"/>
      <path class="cls-1" d="M121.23.71c-.29-.38-.92-.7-1.4-.7h-24.43c-.48,0-1.11.32-1.4.7l-19.9,26.25c-.29.38-.13.7.35.7h15.15c.48-.01,1.11-.33,1.4-.7l2.72-3.58c.29-.39.92-.7,1.4-.7h25.01c.48,0,1.11.31,1.4.7l2.71,3.58c.29.38.93.69,1.41.69h15.14c.48.01.64-.3.35-.69L121.23.71ZM114.99,15.04h-14.69c-.48,0-.63-.32-.35-.7l4.54-6.01c.28-.39.92-.7,1.4-.7h3.51c.49,0,1.11.32,1.41.7l4.53,6.01c.29.38.13.7-.35.7"/>
    </g>
  </g>
</svg>